<svg id="Layer_1" data-name="Layer 1" xmlns="http://www.w3.org/2000/svg" viewBox="0 0 2289.08 2319.21"><defs><style>.cls-1{fill:#1d1d1b;}.cls-2{fill:#ffd400;}.cls-3{fill:#205ba6;}</style></defs><path class="cls-1" d="M1022.18,2290.18c0,16.57-2.7,48.33-20.82,74.8-21.3,31.13-57.79,46.92-108.46,46.92-42.11,0-75.08-10.91-98.1-32.41-10-9.68-24.81-28.37-32.19-58.71a4.58,4.58,0,0,1,3.5-5.61l86.3-17.89a4.6,4.6,0,0,1,5.33,3.27c7.71,26.79,29.43,28.29,34.17,28.29,21.26,0,34.42-18,34.42-34.61,0-18.3-14.15-24.39-66.78-47l-4.4-1.89c-24.76-10.25-90.55-37.45-90.55-108.91,0-76.11,66.87-117.17,129.78-117.17,11.92,0,34.13,1.54,56.73,11,16,6.91,50.24,26.15,57,66.25a4.61,4.61,0,0,1-3.4,5.26l-80.13,20a4.52,4.52,0,0,1-5.26-2.53c-3.92-9.09-11.44-16.91-27.88-16.91-15.22,0-30.95,10.48-30.95,28,0,16.31,10,20.92,75.06,50.94C997.89,2209.9,1022.18,2240.45,1022.18,2290.18Z" transform="translate(-405.25 -372.1)"/><path class="cls-1" d="M1354.48,2031.85v369a4.75,4.75,0,0,1-4.75,4.74h-86.84a4.77,4.77,0,0,1-4.77-4.76v-138.9a4.74,4.74,0,0,0-4.75-4.75h-108a4.72,4.72,0,0,0-4.73,4.72v138.95a4.74,4.74,0,0,1-4.73,4.74H1049a4.75,4.75,0,0,1-4.75-4.74v-369a4.73,4.73,0,0,1,4.73-4.73h86.92a4.71,4.71,0,0,1,4.71,4.71v134a4.72,4.72,0,0,0,4.72,4.72h108a4.76,4.76,0,0,0,4.76-4.76V2031.84a4.75,4.75,0,0,1,4.75-4.75h86.85A4.77,4.77,0,0,1,1354.48,2031.85Z" transform="translate(-405.25 -372.1)"/><path class="cls-1" d="M1611.46,2323.9l-7.68,77.67a4.71,4.71,0,0,1-4.7,4.26H1393.16a5.27,5.27,0,0,1-5.27-5.26V2032.13a4.76,4.76,0,0,1,4.76-4.76h206.41a4.73,4.73,0,0,1,4.72,4.28l7.65,77.42a5,5,0,0,1-4.92,5.42H1489a4.73,4.73,0,0,0-4.73,4.73v46.14a4.75,4.75,0,0,0,4.75,4.74h85.54a4.69,4.69,0,0,1,4.69,4.69v77.43a4.78,4.78,0,0,1-4.78,4.79h-85.52a4.67,4.67,0,0,0-4.68,4.67V2314a4.75,4.75,0,0,0,4.76,4.75h117.75A4.72,4.72,0,0,1,1611.46,2323.9Z" transform="translate(-405.25 -372.1)"/><path class="cls-1" d="M1860.51,2322.72l-8.19,78.08a4.57,4.57,0,0,1-4.55,4.1H1642.31a4.58,4.58,0,0,1-4.58-4.58V2030.61a4.58,4.58,0,0,1,4.58-4.57h87.2a4.58,4.58,0,0,1,4.59,4.57v282.48a4.56,4.56,0,0,0,4.57,4.57H1856A4.59,4.59,0,0,1,1860.51,2322.72Z" transform="translate(-405.25 -372.1)"/><path class="cls-1" d="M2064.83,2030.61v78.08a4.58,4.58,0,0,1-4.57,4.57H1992.9a4.59,4.59,0,0,0-4.58,4.58v282.48a4.58,4.58,0,0,1-4.57,4.58h-87.21a4.57,4.57,0,0,1-4.57-4.58V2117.84a4.58,4.58,0,0,0-4.57-4.58h-67.86a4.58,4.58,0,0,1-4.58-4.57v-78.08a4.57,4.57,0,0,1,4.58-4.57h240.72A4.57,4.57,0,0,1,2064.83,2030.61Z" transform="translate(-405.25 -372.1)"/><path class="cls-1" d="M2307.88,2323.9l-7.67,77.67a4.73,4.73,0,0,1-4.71,4.26H2089.59a5.27,5.27,0,0,1-5.28-5.26V2032.13a4.76,4.76,0,0,1,4.76-4.76h206.41a4.75,4.75,0,0,1,4.73,4.28l7.64,77.42a4.93,4.93,0,0,1-4.91,5.42H2185.4a4.72,4.72,0,0,0-4.72,4.73v46.14a4.74,4.74,0,0,0,4.74,4.74H2271a4.69,4.69,0,0,1,4.69,4.69v77.43a4.78,4.78,0,0,1-4.78,4.79h-85.52a4.66,4.66,0,0,0-4.67,4.67V2314a4.74,4.74,0,0,0,4.75,4.75h117.75A4.72,4.72,0,0,1,2307.88,2323.9Z" transform="translate(-405.25 -372.1)"/><path class="cls-1" d="M2607,2399a4.58,4.58,0,0,1-4.2,6.41h-94.69a4.56,4.56,0,0,1-4.19-2.75l-49.5-113.43a4.57,4.57,0,0,0-4.2-2.75h-15.16a4.58,4.58,0,0,0-4.57,4.58v108.6a4.58,4.58,0,0,1-4.57,4.58h-87.21a4.59,4.59,0,0,1-4.58-4.58V2030.32a4.59,4.59,0,0,1,4.58-4.58h116.78c67.52,0,93.64,10.6,113.89,27.7,27.76,23.51,43.69,60.19,43.69,100.62,0,39.16-15.76,79.18-39.18,99.59a141.94,141.94,0,0,1-19.64,14.5,4.57,4.57,0,0,0-1.84,5.74Zm-86.33-243.39c0-18.5-7.35-30.68-22.49-37.24-12.67-5.48-28-5.48-38.22-5.48h-24.9a4.58,4.58,0,0,0-4.57,4.57v77.33a4.58,4.58,0,0,0,4.57,4.57h28.38c8.81,0,23.55,0,35.72-5.48C2517,2185.85,2520.69,2168.62,2520.69,2155.58Z" transform="translate(-405.25 -372.1)"/><path class="cls-1" d="M2636.81,1539.41c2.63,1.94,5.28,3.86,7.93,5.8,25.9-591.34-417.53-1104.5-1013.2-1158.73C1018.06,330.61,475.46,782.65,419.6,1396.13c-27.13,298,65.57,579.18,238.36,796.06-11.71-65.9-9.38-133-2-199.82-65-152.12-94.34-322.07-78.29-498.37,51.7-567.76,553.86-986.1,1121.61-934.41C2219.19,606.94,2613.74,1032.09,2636.81,1539.41Z" transform="translate(-405.25 -372.1)"/><path class="cls-1" d="M674.16,2228.06l-23.77-29.84c-181.45-227.75-266.84-512.91-240.43-803,27.25-299.28,169.41-570,400.31-762.38s522.83-283.28,822.15-256c599.4,54.58,1048.3,568,1022,1168.79l-.79,18.11-26.26-19.27-.21-4.61c-23.07-507.24-422.34-924.51-928.77-970.63-272-24.8-537.4,57.88-747.25,232.71s-339.07,420.92-363.83,692.94C572,1663.25,598.76,1834,664.83,1988.57l1,2.34-.27,2.52c-8.63,78.45-8,141.08,1.94,197.07Zm854.3-1836.6c-257.84,0-505.26,89.21-705.8,256.28C595.73,836.78,456,1102.88,429.24,1397c-24.85,273,51,541.5,214.07,760.31-5-47.77-4-100.75,2.72-163.48-66.59-156.92-93.57-330-78-500.72,25.24-277.17,156.9-527.91,370.73-706S1422.91,524.75,1700.13,550a1042.38,1042.38,0,0,1,933.06,864.3c-38.89-532.69-457.38-968.5-1002.53-1018.13Q1579.41,391.44,1528.46,391.46Z" transform="translate(-405.25 -372.1)"/><path class="cls-2" d="M1710.53,856.25v414.17a409,409,0,0,1,166.76,50.08l286-286C2040.32,929.54,1883,863.7,1710.53,856.25Z" transform="translate(-405.25 -372.1)"/><path class="cls-3" d="M1266,1680.47c0-130.89,61.28-247.27,156.49-322.68l-278.56-278.57c-133,135.15-215.06,320.47-215.06,525a755.86,755.86,0,0,0,8.56,113.51h330.45C1266.77,1705.45,1266,1693.05,1266,1680.47Z" transform="translate(-405.25 -372.1)"/><path class="cls-2" d="M2211.46,1079.22,1932.9,1357.79c95.21,75.41,156.49,191.79,156.49,322.68,0,12.58-.78,25-1.89,37.28H2418a754.55,754.55,0,0,0,8.56-113.51C2426.51,1399.69,2344.41,1214.37,2211.46,1079.22Z" transform="translate(-405.25 -372.1)"/><path class="cls-3" d="M1478.09,1320.5a409,409,0,0,1,166.76-50.08V856.25a745.32,745.32,0,0,0-452.79,178.23Z" transform="translate(-405.25 -372.1)"/><path class="cls-1" d="M726.73,2628.91V2528.68h21v100.23c0,26.17,17.06,43.7,42.52,43.7,25.24,0,42.06-17.53,42.06-43.7V2528.68h21v100.23c0,37.39-25.23,62.39-63.09,62.39C752.2,2691.3,726.73,2666.3,726.73,2628.91Z" transform="translate(-405.25 -372.1)"/><path class="cls-1" d="M956.18,2528.68h21v85.75l78.51-85.75H1084l-64,69.17,65.19,91.12h-24.31l-54.67-76.41-29,31.31V2689h-21Z" transform="translate(-405.25 -372.1)"/><path class="cls-1" d="M1177.22,2528.68h69.39c28,0,47,16.83,47,41.83,0,22-15.19,38.55-37.62,41.35l47.89,77.11h-24.76l-47.66-76.64h-33.18V2689h-21Zm69.39,65c15.43,0,25.94-9.34,25.94-23.12s-10.51-23.14-25.94-23.14h-48.36v46.26Z" transform="translate(-405.25 -372.1)"/><path class="cls-1" d="M1477,2642.47h-71.5l-18.45,46.5h-22.43l65.88-160.29H1452L1517.88,2689h-22.43Zm-7.48-18.69-28.27-71-28.27,71Z" transform="translate(-405.25 -372.1)"/><path class="cls-1" d="M1736.12,2528.68h23.14l90,131.08V2528.68h21V2689h-23.37l-89.72-130.85V2689h-21Z" transform="translate(-405.25 -372.1)"/><path class="cls-1" d="M1977.72,2528.68h21V2689h-21Z" transform="translate(-405.25 -372.1)"/><path class="cls-1" d="M1607.61,2528.68h21V2689h-21Z" transform="translate(-405.25 -372.1)"/><path class="cls-1" d="M2200.86,2642.47h-71.5l-18.45,46.5h-22.43l65.88-160.29h21.5L2241.74,2689h-22.43Zm-7.48-18.69-28.27-71-28.27,71Z" transform="translate(-405.25 -372.1)"/><path class="cls-1" d="M2329.13,2528.68h23.14l90,131.08V2528.68h21V2689h-23.36l-89.73-130.85V2689h-21Z" transform="translate(-405.25 -372.1)"/><path class="cls-1" d="M2558.12,2633.82H2578c0,23.14,20.09,38.79,50,38.79,27.1,0,45.33-11.69,45.33-29.21,0-13.08-12.16-20.56-47.44-28.74-42-9.8-56.77-21-56.77-43.46,0-26.86,23.59-44.86,58.88-44.86,29.9,0,54.67,18.46,61.45,46l-19.16,4.68c-4.21-19.16-21.26-32-42.29-32-22.67,0-37.86,10.51-37.86,26.16,0,11.23,10.29,17.3,40,24.07,47.66,11.21,64.25,23.6,64.25,48.13,0,28.75-26.63,47.9-66.35,47.9C2586.16,2691.3,2558.12,2668.17,2558.12,2633.82Z" transform="translate(-405.25 -372.1)"/></svg>